<svg height="257" viewBox="0 0 554 257" width="554" xmlns="http://www.w3.org/2000/svg"><g fill="none" fill-rule="evenodd"><path d="m0 112h36v145h-36z" fill="#19ac6c"/><path d="m42 139h36v118h-36z" fill="#ea5f61"/><path d="m95 112h36v145h-36z" fill="#19ac6c"/><path d="m137 88h36v169h-36z" fill="#ea5f61"/><path d="m190 63h36v194h-36z" fill="#19ac6c"/><path d="m232 167h36v90h-36z" fill="#ea5f61"/><path d="m286 75h36v182h-36z" fill="#19ac6c"/><path d="m328 102h36v155h-36z" fill="#ea5f61"/><path d="m381 75h36v182h-36z" fill="#19ac6c"/><path d="m423 185h36v72h-36z" fill="#ea5f61"/><path d="m476 42h36v215h-36z" fill="#19ac6c"/><path d="m518 127h36v130h-36z" fill="#ea5f61"/><g fill="#3da0f0"><circle cx="39" cy="235" r="9"/><circle cx="133" cy="240" r="9"/><circle cx="230" cy="148" r="9"/><circle cx="324" cy="121" r="9"/><circle cx="419" cy="43" r="9"/></g><path d="m38 234.769811 95.250457 5.230189 96.124314-92.4 94.3766-26.150943 95.250457-79.3245287 96.998172-33.1245283" stroke="#3da0f0" stroke-width="3"/><circle cx="516" cy="9" fill="#3da0f0" r="9"/></g></svg>