<svg height="49" viewBox="0 0 119 49" width="119" xmlns="http://www.w3.org/2000/svg" xmlns:xlink="http://www.w3.org/1999/xlink"><linearGradient id="a" x1="100%" x2="0%" y1="41.522491%" y2="58.477509%"><stop offset="0" stop-color="#23ea76"/><stop offset="1" stop-color="#00ab6a"/></linearGradient><path d="m15.9690534 9.9817291c5.1229703 0 10.1205199 3.1091333 12.1490206 8.7707209l.0004712-8.1869201h6.4423411v15.891313c0 4.3435651 2.182103 6.83511 6.014311 6.83511 3.7264164 0 6.3353336-2.5968215 6.3353336-6.9409916v-15.7854314h6.4405171v27.969679h-6.4405171v-4.3435651c-1.8100085 2.6488547-4.4183176 4.9256113-8.7837394 4.9256113-5.7525069 0-9.3110883-3.4946892-9.9160988-9.0174935-1.9573988 5.8185113-7.001958 9.017554-12.2416393 9.017554-4.6311167 0-7.55801646-2.3299999-9.52732025-4.9256113v14.8082957h-6.44173315v-38.4344096h6.44173315v4.6612098c2.07570335-2.9132561 5.00321115-5.2450711 9.52732025-5.2450711zm89.5631946-.00006051c8.943643 0 13.467752 6.99423491 13.467752 15.04486541 0 .5826512-.052896 1.1665125-.105184 1.801197h-20.6548895c.6919011 4.5565383 3.9398235 7.0983013 8.0918385 7.0983013 3.141523 0 5.375913-1.1646974 7.612128-3.3367825l3.778704 3.3367825c-2.661205 3.1788676-6.333509 5.2450711-11.498448 5.2450711-5.375488 0-9.9395277-2.5616878-12.4211539-6.787119-.9745008 4.4665159-5.1082056 6.6812979-10.2148955 6.6812979-.5506025 0-1.1105439-.0371735-1.674532-.0951022l-.4236673-.0470816v-5.1688364c.7727648.1488393 1.5297217.225074 2.2587106.225074 2.7061019 0 4.2938301-1.1135083 4.3630592-2.8965354l.0023626-.1226023v-.1064866c0-2.1720851-2.9816195-2.9138612-6.2812218-3.9206438-4.0963373-1.1475491-8.6575574-2.8124555-8.7817537-7.9919032l-.0025937-.2178522v-.1064866c0-5.2971044 4.4177096-8.5280052 10.0082463-8.5280052 3.4065545 0 7.1138269 1.1441067 10.0540765 3.0014547l.2733685.1762028-2.5560214 4.5553282c-2.7141007-1.641467-5.5893207-2.6488546-7.9313269-2.6488546-2.4423404 0-3.870169 1.1122021-3.9367763 2.6910273l-.0024393.1163472v.1070917c0 1.9355386 2.8044558 2.7942489 5.9551388 3.7987238l.3795868.1213149c2.3109053.7170858 4.7911349 1.6194058 6.515071 3.1720159-.0053753-.1733628-.0079781-.3480236-.0079781-.5238268v-.1064866c0-7.9967822 5.6957202-14.56749071 13.7328386-14.56749071zm-34.6216252 14.44672521v14.1427543h-6.6885801v-14.1427543zm-8.8414991-24.4283938v38.5711481h-6.3845814v-38.5711481zm17.3796076 29.7109772v8.8601709h-6.3851894v-8.8601709zm-64.9698796-14.1659272c-4.3642059 0-8.19702188 3.6011839-8.19702188 8.9521366v.1064866c0 5.4023809 3.83281598 8.9527416 8.19702188 8.9527416 4.4189255 0 8.0383344-3.4444791 8.0383344-8.9527416v-.1064866c0-5.4023809-3.6729126-8.9521366-8.0383344-8.9521366zm91.0017163-.3183103c-3.939823 0-6.7086437 3.0209528-7.2941452 7.3633078h14.4265642c-.424991-4.1318019-2.874612-7.3633078-7.132419-7.3633078z" fill="url(#a)"/></svg>